Coordinates
version=1
nRows=24
nColumns=24
inDegrees=yes

Units are S.I. units (second, meters, Newtons, ...)
Angles are in degrees.

endheader
time	pelvis_tilt	pelvis_list	pelvis_rotation	pelvis_tx	pelvis_ty	pelvis_tz	hip_flexion_r	hip_adduction_r	hip_rotation_r	knee_angle_r	ankle_angle_r	subtalar_angle_r	mtp_angle_r	hip_flexion_l	hip_adduction_l	hip_rotation_l	knee_angle_l	ankle_angle_l	subtalar_angle_l	mtp_angle_l	lumbar_extension	lumbar_bending	lumbar_rotation
      0.44200000	     -3.89779682	      2.72822517	     -1.76160935	     -0.78559681	      1.05425388	      0.31214267	     24.89501497	      1.04488758	     -6.41382763	     -1.66658847	      2.90215883	     -3.66599989	     -0.04945396	     -5.24194326	      6.73773660	     -3.22841120	    -12.45063517	     13.08296421	      1.87864581	      0.10151236	      4.50011831	     -0.55547463	     -1.39540001
      0.44616667	     -3.86795004	      2.71414262	     -1.77917011	     -0.77967075	      1.05396642	      0.31226459	     24.81171665	      1.09946636	     -6.33220552	     -1.92890477	      2.90408005	     -3.66969705	     -0.04974894	     -5.28673452	      6.67750241	     -3.30505929	    -13.12718848	     13.03917756	      1.84687143	      0.08833216	      4.57582575	     -0.49393038	     -1.42743506
      0.45033333	     -3.87899461	      2.67875473	     -1.87461359	     -0.77357592	      1.05360250	      0.31267697	     24.77688567	      1.23192159	     -6.20437469	     -2.26534070	      2.98546913	     -3.69682170	     -0.04901107	     -5.25749809	      6.56812370	     -3.70222274	    -13.87407078	     12.96340214	      1.99555211	      0.05318843	      4.55363697	     -0.44922661	     -1.52962863
      0.45450000	     -3.83159051	      2.67706674	     -1.98588993	     -0.76759109	      1.05331854	      0.31315658	     24.68663625	      1.33332126	     -5.93202444	     -2.64455994	      3.04950078	     -3.70743506	     -0.04512363	     -5.25224236	      6.48601734	     -4.12268852	    -14.68279616	     12.86677871	      2.46948455	      0.01332805	      4.52446737	     -0.48900853	     -1.62674799
      0.45866667	     -3.77818756	      2.66307913	     -2.05678746	     -0.76156099	      1.05307754	      0.31355822	     24.57490798	      1.42597400	     -5.68640820	     -3.03497923	      3.03583518	     -3.78003657	     -0.03972786	     -5.23079441	      6.38220450	     -4.46289562	    -15.55040775	     12.82074925	      2.98022326	     -0.01652736	      4.51850905	     -0.48436814	     -1.68381752
      0.46283333	     -3.64692194	      2.66694442	     -2.20595817	     -0.75556045	      1.05293062	      0.31405201	     24.39316453	      1.52408064	     -5.32947006	     -3.47201920	      2.95238317	     -3.98792827	     -0.02819046	     -5.27487455	      6.30030359	     -4.85883451	    -16.43596585	     12.76445701	      3.74004615	     -0.04627198	      4.53330590	     -0.49205351	     -1.72464277
      0.46700000	     -3.56343090	      2.63656756	     -2.15649036	     -0.74948600	      1.05282850	      0.31408588	     24.22234973	      1.55517506	     -5.20174849	     -3.87994818	      2.89646950	     -3.97194725	     -0.02543111	     -5.23273084	      6.17858995	     -4.95493690	    -17.41243861	     12.67604620	      3.77120692	     -0.04786806	      4.58367345	     -0.42737982	     -1.72528370
      0.47116667	     -3.49001192	      2.63835603	     -2.32890783	     -0.74344676	      1.05261256	      0.31476562	     24.10758590	      1.68107556	     -4.85370140	     -4.36753170	      2.68855123	     -4.19587023	     -0.00915407	     -5.13450582	      6.05685974	     -5.54329891	    -18.44165299	     12.33659113	      4.56666750	     -0.03909876	      4.43966010	     -0.43788204	     -1.75677684
      0.47533333	     -3.38306355	      2.55799529	     -2.37055484	     -0.73724420	      1.05256279	      0.31546713	     23.84677684	      1.85496695	     -4.29324443	     -4.68605845	      2.41712341	     -4.72179185	      0.02615588	     -5.04865978	      5.79922046	     -6.00956092	    -19.56797134	     12.22299892	      5.40711091	      0.01226510	      4.41527418	     -0.45627518	     -1.71812043
      0.47950000	     -3.31003163	      2.54479101	     -2.42366632	     -0.73120913	      1.05243221	      0.31579185	     23.71203503	      1.92051676	     -4.12090056	     -5.17226228	      2.20270884	     -4.88557427	      0.04575499	     -4.88306581	      5.65704612	     -6.35007766	    -20.73397078	     11.91258928	      5.70982835	      0.04674589	      4.31965167	     -0.35883978	     -1.72319259
      0.48366667	     -3.24079700	      2.45914880	     -2.37675961	     -0.72499296	      1.05238415	      0.31606997	     23.51114279	      2.02819062	     -3.93851581	     -5.56092200	      2.04680988	     -4.90974716	      0.05658848	     -4.68543452	      5.40500064	     -6.63482970	    -21.98039026	     11.63411091	      5.89457591	      0.06777616	      4.26197057	     -0.31651296	     -1.72305277
      0.48783333	     -3.10825166	      2.41042274	     -2.49922604	     -0.71888085	      1.05236722	      0.31683146	     23.25006363	      2.18395503	     -3.38266093	     -5.92914639	      1.56544228	     -5.45494756	      0.10098538	     -4.52813425	      5.16768745	     -7.13197980	    -23.23488224	     11.00950963	      6.80196430	      0.19690072	      4.29536088	     -0.33580927	     -1.69372592
      0.49200000	     -3.02003488	      2.38586194	     -2.56101454	     -0.71291744	      1.05228735	      0.31721786	     23.09300159	      2.26034807	     -3.18472694	     -6.41716674	      1.27971075	     -5.72452180	      0.12858266	     -4.26512402	      4.97891194	     -7.48618962	    -24.58567078	     10.57268293	      7.14925985	      0.28336441	      4.12781981	     -0.18539369	     -1.70336343
      0.49616667	     -2.92045947	      2.29997787	     -2.58636480	     -0.70679796	      1.05228759	      0.31771502	     22.86250389	      2.39701958	     -2.89244761	     -6.80234920	      0.91010801	     -6.01595977	      0.16062996	     -3.99282303	      4.68732552	     -7.85047787	    -25.98919656	      9.92453682	      7.61592768	      0.39274142	      4.06354820	     -0.11370148	     -1.69136084
      0.50033333	     -2.81679583	      2.17330908	     -2.59949604	     -0.70059344	      1.05231946	      0.31835073	     22.58988983	      2.58668753	     -2.50251532	     -7.12759284	      0.46272869	     -6.60385077	      0.21987520	     -3.70113081	      4.32214517	     -8.21814220	    -27.43960549	      9.27565728	      8.10119103	      0.61838767	      4.10064087	     -0.09252499	     -1.63506445
      0.50450000	     -2.74060674	      2.06971580	     -2.59403454	     -0.69453668	      1.05229683	      0.31865897	     22.40507985	      2.70949005	     -2.40337801	     -7.56992104	      0.30723755	     -6.62458861	      0.23391169	     -3.32644063	      4.00849167	     -8.49486182	    -28.98596369	      8.91129639	      8.20895711	      0.66628047	      3.94892961	      0.05589507	     -1.64906235
      0.50866667	     -2.64815851	      2.00551421	     -2.63423023	     -0.68865765	      1.05226172	      0.31906743	     22.21878608	      2.80755551	     -2.15394906	     -8.00873926	     -0.11628660	     -6.96503122	      0.26755676	     -2.92816807	      3.73005690	     -8.75480795	    -30.52307471	      7.83890681	      8.68937885	      0.80966935	      3.86990429	      0.22577803	     -1.64287150
      0.51283333	     -2.55743274	      1.82514679	     -2.61634273	     -0.68248972	      1.05229717	      0.31947109	     21.98035016	      3.01165486	     -2.05059051	     -8.39717790	     -0.28575662	     -7.03391373	      0.28197223	     -2.51978332	      3.29971494	     -9.02993517	    -32.15154267	      7.38735671	      8.78700960	      0.86730950	      3.78779900	      0.31664631	     -1.63650640
      0.51700000	     -2.46811866	      1.70451339	     -2.63186734	     -0.67653224	      1.05229214	      0.31997382	     21.76635459	      3.16847216	     -1.80253719	     -8.78792247	     -0.79392022	     -7.71708254	      0.33196290	     -2.06615458	      2.92653647	     -9.25753967	    -33.75897423	      6.04954540	      9.19856937	      1.11895683	      3.84088386	      0.46828819	     -1.58549888
      0.52116667	     -2.40442356	      1.58710364	     -2.62660490	     -0.67076159	      1.05222352	      0.32029272	     21.60329382	      3.29430246	     -1.60608475	     -9.22670399	     -1.03051782	     -7.93797608	      0.36362437	     -1.53149449	      2.57070107	     -9.40349788	    -35.47323179	      5.34370282	      9.32695882	      1.26794521	      3.65898326	      0.72893403	     -1.59001206
      0.52533333	     -2.31296525	      1.40996400	     -2.60011158	     -0.66486071	      1.05223677	      0.32064191	     21.38630660	      3.47891665	     -1.50788631	     -9.63584722	     -1.27303663	     -8.19896426	      0.39651261	     -1.01703078	      2.13591464	     -9.54086814	    -37.18367066	      4.37455420	      9.47803949	      1.42700628	      3.56966728	      0.93062358	     -1.56836901
      0.52950000	     -2.30014984	      1.24459623	     -2.68766736	     -0.65893451	      1.05208555	      0.32127352	     21.26573476	      3.70900442	     -1.29704956	    -10.03896388	     -1.86070069	     -8.83186939	      3.81066844	     -0.41029216	      1.69620395	     -9.79400343	    -38.85895043	      2.98820879	      9.25685891	     17.69788480	      3.63924195	      1.02201645	     -1.11741633
      0.53366667	     -2.19606453	      1.04354963	     -2.60778462	     -0.65317159	      1.05212523	      0.32141395	     21.03611662	      3.87712819	     -1.29998122	    -10.46523781	     -1.80938810	     -8.91596123	      3.81803392	      0.15236558	      1.25196445	     -9.77443813	    -40.63045901	      2.21525802	      9.27737428	     17.69685576	      3.48922894	      1.40600496	     -1.22134817
      0.53783333	     -2.10598789	      0.81833036	     -2.56317877	     -0.64730570	      1.05216210	      0.32163017	     20.82431448	      4.08823954	     -1.42316911	    -10.89609393	     -1.90756689	     -9.08196314	      3.82516542	      0.73111542	      0.77821964	     -9.79064794	    -42.36554163	      1.14614371	      9.20710693	     17.69453213	      3.45452653	      1.61349639	     -1.29096783
